<?xml version="1.0" encoding="utf-8"?>
<!-- Generator: Adobe Illustrator 25.0.1, SVG Export Plug-In . SVG Version: 6.00 Build 0)  -->
<svg version="1.0" id="Layer_1" xmlns="http://www.w3.org/2000/svg" xmlns:xlink="http://www.w3.org/1999/xlink" x="0px" y="0px"
	 viewBox="120 50 780 190" style="enable-background:new 120 50 780 190;" xml:space="preserve">
<style type="text/css">
	.st0{stroke:#c89857; stroke-width:0.6841;stroke-miterlimit:10;}
	.st1{stroke:#000000; fill:#a17a3a;}
</style>
<path class="st1" d="M242.8,94.6c2.1-0.2,3.4-2.1,5.4-2.5c0.1,7.7-1.1,15.4-1,23.1l-2.2-0.1c-0.1-2.9-0.7-5.7-1.9-8.3c-1.4-2.7-4.5-3.9-7.4-4.2
	c-3.1-0.4-6.2-0.8-9.3-1c-6.8-0.1-13.6-0.3-20.4,0c-0.5,12.6-0.8,25.2-0.8,37.8c5.6,0.1,11.1,0,16.7-0.3c4-0.2,8.2,0.5,12.1-0.8
	c4.1-1.8,4.5-6.8,5.5-10.5l1.7,0.3c0.3,4,0,8,0,11.9c0.2,5.9-0.2,11.9,0.1,17.8l-2-0.1c-0.7-4-2.1-7.8-4-11.4c-10-0.3-20,0-30.1-0.1
	c-0.2,5.5,0,11,0.1,16.6c-0.2,3.3,0.4,6.6,0.4,9.9c0.3,3.3,0.2,6.8,2.1,9.7c1.4,2.4,4.1,3.6,6.7,4c8.8,1.3,17.9,0.4,26.2-2.7
	c0.3,0.6,0.6,1.2,1,1.8c-0.3-0.7-0.5-1.3-0.8-2c2.6-1.4,5.3-2.8,7.3-5c2.1-2.7,3.9-5.6,5.2-8.8l1.7,0.6c-0.9,3.5-2.2,6.9-3.3,10.3
	c-1.3,4-2.6,8-4,12c-3.6-0.1-7.3,0.2-10.9,0.1c-4.3,0.1-8.7-0.3-13,0.1h-0.2c-7.2-0.3-14.4-0.2-21.6-0.3c0.8-3.2-0.4-6.4,0.2-9.6
	c0.2-1.7,0.8-3.4,0.1-5.1c-0.1,2.9-1.1,5.6-1.2,8.5c-0.3,2.1-0.7,4.1-1.3,6.1c-3.5,0.6-7.1-0.2-10.7,0.4h-14.8
	c-1.1-0.1-2.2-0.2-3.3-0.3v-2.2c4.3-0.3,8.7-0.6,12.7-2.4c3.1-1.4,4.5-4.9,5.1-8c0.6-4.4,0.9-8.9,0.9-13.4
	c0.7-12.8,0.4-25.7,0.4-38.5c2.8,0.5,5.6,1.8,6.8,4.5c-0.2-1.2-0.5-2.4-1.1-3.6c-1.4-2.4-4.1-3.8-5.7-6.1c-0.4-3.6,0-7.2-0.5-10.7
	c0.1-3.4-0.4-6.8-1.6-10l-1.1-0.8l1.1-1.2l-1.2,0.8c-3.9-2.5-8.6-3.3-13.2-3.7v-2.3c19.8,0.2,39.5,0.1,59.3,0.1
	C236.2,95.1,239.5,94.9,242.8,94.6 M801.6,95.9c7.3-0.9,14.7-0.7,21.9,0.5c4.5,0.5,8.8,1.9,13.3,2.5c1.4,0.2,2.4-1,3.1-2.1l1.6-0.1
	c-0.6,6-1.1,11.9-1.4,17.9c-0.4,3-0.5,6-0.4,9c-0.8-0.1-1.5-0.1-2.2-0.2c0-3-1-5.9-1.6-8.8c-0.8-3.9-3.2-7.2-6.6-9.3
	c-5.4-3.8-12.2-4.7-18.7-4.6c-9.5,0.3-19.2,4.4-24.9,12.2c-4.9,6.5-7.6,14.3-7.9,22.4c-1,0.3-1.7-0.5-2.3-1.2
	c-0.5,0.3-0.9,0.7-1.3,1c1.1,0.9,3.3,1.9,2.5,3.7c-0.6,1,0.3,1.6,1,2c-0.4,0.7-0.8,1.4-1.3,2l1.1,1c0.9,9,3.6,18,9.1,25.3
	c2.5,3.4,5.6,6.3,9.2,8.7c0,0.3,0,0.8,0,1l1-0.4c5,2.7,10.6,4.4,16.3,4.8c5,0.8,10.1-0.2,15-1.3c-0.1-3.8,0-7.7,0.3-11.5
	c-0.1-4.5,0.2-9,0-13.4c0-2.6-1.5-4.9-3.8-6c-3.4-1.4-7.1-2.4-10.8-2.8c0-0.7,0-1.4,0-2.1c4.5,0,8.9-0.1,13.4,0
	c0.2,0.8-0.6,1.5-0.8,2.2c0.9-0.7,1.7-1.4,2.5-2.2c7.2,0,14.5,0,21.7,0c0,0.7,0,1.4-0.1,2.1c-2.9,0.2-6.3,0.8-8.2,3.3
	c-1.3,1.7-1.2,3.9-1.3,5.9c0,7.4,0,14.8,0.2,22.2c1.6,0.9,3.6,0.9,5.4,1.2c0,0.6,0.1,1.2,0.1,1.8c-6.1,1.4-12.3,2.7-18.4,4.2
	c-4.7,0.6-9.4,2-14.2,1.9c-7.4,0.7-14.9-0.3-21.8-2.8c-0.2,0.5-0.4,1-0.6,1.5c-0.5,0.1-1.1,0.3-1.6,0.4c-0.6-1.6-0.3-3.3-0.5-5
	c0.9-0.4,0.7-1.5,1.2-2.1c-0.7,0-1.3,0-2-0.1c0.4,0.4,1.2,0.6,0.9,1.4l-1.5,0.3c0.4-1.7-0.4-3.2-0.7-4.8c-1.6,1.4-2.4,4.5-5.2,3.9
	c-9.7-5.6-16.8-14.7-19.9-25.4c0.8-0.9,1.5-1.9,1.8-3.1c0.1-0.7,0.5-1.2,1.1-1.6c0.3-0.6,0.5-1.2,0.8-1.8l-0.2-0.4
	c-0.4,0.7-0.9,1.4-1.4,2l-0.9,0.3c-0.2,1.2-0.5,2.5-1,3.6c-0.9-0.3-0.8-1.3-1-2c-0.3-2.3-0.9-4.6-1.1-7c-0.3-4.6,0.1-9.2,1-13.8
	l2.1,0.4l1.1-0.8c-0.9-0.7-1.7-1.4-2.4-2.4c1.3-3.9,2.9-7.6,4.9-11.2c1.4,0.6,1.7,2.2,2.8,3.1c0.1-2-1.3-4-0.8-5.9
	C776.9,105,788.6,97.9,801.6,95.9 M847.4,98.1c1.3-1,3.2-0.2,4.7-0.5c0.2,0.5,0.5,1,0.8,1.4c0.2-0.7,0.7-1.3,1.4-1.6
	c0,1.4-0.5,2.7-1.4,3.8c-0.4-0.4-0.8-0.8-1.1-1.2c-0.1,0.4-0.2,1.1-0.3,1.4c-1-0.9-0.6-2.4-0.6-3.6l-1.4,0.8c0,0.9,0.4,2-0.7,2.4
	c0-0.9,0-1.8,0-2.7L847.4,98.1 M438,108.4c1.7,0,2.7-1.7,4.4-1.7c0,2-0.5,3.9-0.4,5.9c0.2,2.5-0.5,4.9-0.4,7.4
	c0,1.2,0.1,2.7-1.1,3.4c-1.3-2.5-0.6-5.9-2.9-7.9c-1.5-0.9-3.4-1.4-3.8-3.4l-0.3,1.4c-3.2,0.2-6.5-0.4-9.7-0.3c-3.9,0-7.8,0-11.6,0
	c0,8.9-0.5,17.9-0.5,26.8c5.3,0.1,10.6-0.2,16-0.2c2.1,0,4.7,0,6.1-1.9c1.2-1.8,2-3.9,2.3-6.1l1.4,0.1c-0.1,7,0,14.1,0,21.1
	l-1.5,0.1c-0.5-2.7-1.5-5.3-2.8-7.6c-0.3-0.6-1.1-0.4-1.6-0.5c-6.7-0.1-13.4,0-20.1,0c0.1,3.7-0.2,7.5,0.3,11.2
	c0.2,4.5,0,9.2,1.2,13.6c0.7,1.6,2,2.8,3.7,3.2c2.8,0.8,5.6,0.6,8.5,0.6c4.7,0.1,9.3-1,13.5-3.1c-0.1,1.2-0.2,2.4-0.1,3.6
	c1.4-1.1,1-3.1,1.5-4.6c2.6-1.8,4.2-4.6,5.6-7.4c0.2-1.1,2.1-0.1,1.3,0.8c-1.5,5-3.5,10-5,15c-12.7,0.2-25.3,0-38,0.1
	c-5.5-0.2-11,0.1-16.5-0.1c0-0.4,0.1-1.3,0.1-1.8c3.1-0.2,6.3-0.4,9-1.9c2.6-1.5,3.3-4.7,3.6-7.5c0.9-11.2,0.5-22.4,0.6-33.6
	c-0.1-5.6,0.1-11.3-0.6-16.9c-0.1-1.5-0.9-2.9-2.1-3.8c-2.6-1.8-5.9-2-9-2.4c0-0.4,0-1.3,0-1.8c6.8,0,13.6,0,20.4,0.3
	c1.5,0.6,3,1.1,4.6,1.5c-0.6-0.6-1.1-1.1-1.7-1.7c6,0.1,11.9-0.1,17.9,0.2C432.7,108.6,435.3,108.5,438,108.4 M333.3,108.7
	c3.2-0.6,6.5-0.3,9.8-0.4c8.9-0.3,18,0.1,26.3,3.5c7.5,3,14.5,8,18.4,15.3c4.5,8.1,4.9,18.1,2,26.8c-3.1,9.7-11,17.5-20.3,21.3
	c-8.5,3.7-17.9,3.8-26.9,3.2c-9.6-0.8-19.3-0.2-29-0.3c0-0.4,0.1-1.3,0.1-1.7c3.8-0.6,8.2-0.5,10.9-3.5c2.5-2.6,2.2-6.5,2.5-9.8
	c0.2-14,0.3-28,0-42c-0.2-3-0.1-6.8-3.1-8.6c-2.8-1.4-6-1.8-9.1-2.2v-1.7c3.5-0.3,6.9-0.1,10.4-0.1
	C328,108.4,330.7,108.2,333.3,108.7 M339.6,112.5c-0.3,0.5-0.5,1.1-0.7,1.7c-0.4,4.1-0.4,8.2-0.6,12.3c0.1,14-0.1,28,0.2,42
	c0.2,1.2,1.3,2.1,2.1,2.9c3.2,2.2,6.9,3.4,10.8,3.4c7.5,0.1,15.6-2.6,20.2-8.8c4.9-5.8,6.6-13.8,6.4-21.2
	c0.6-9.4-4.3-18.5-11.6-24.3C359.1,114.1,349.1,111.8,339.6,112.5 M563.2,107.9c8.8,0,17.6,0.1,26.5,0c4.3,0.2,8.6-0.1,12.9,0.6
	c4.4,0.9,9,2,12.2,5.2c4.3,4.1,5,10.7,3.9,16.3c-0.5,1.8-0.7,3.9-2.3,5.1c-0.2,1.7-1,4.1-3.1,4c-0.7,0.1-0.1,1.2-0.2,1.6
	c-3.3,3.2-7.5,5.4-12,6.3c0.8,0.6,1.7,0.3,2.6,0.3c6.3,7.7,12.5,15.5,19.2,23c2.2,2.6,5.2,4.4,8.4,5.4c0,0.3,0.1,0.9,0.1,1.2
	c0.5,0.4,0.9,0.9,1.4,1.3c-3.7,0.1-7.4,0.1-11.2,0.1c-5-0.1-9.1-3.8-12-7.6c-5.6-7.4-11.3-14.7-16.8-22.1c-0.3-0.5-0.8-0.7-1.3-0.6
	c-2.7,0-5.3,0-8,0.1c0.5,8,0.5,16,0.9,24c0.1,1.6,1.1,3,2.6,3.6c1.8,0.6,3.6,0.6,5.5,1.1l0.4,1.5c-6.2,0.3-12.5,0.1-18.7,0.1
	c-3.2-0.1-6.3,0.2-9.5-0.1v-1.1c1.3-0.7,2.9-0.5,4.2-0.8c2.2-0.4,3.8-2.3,3.8-4.6c0-3.2,0.1-6.3,0-9.5l1.3,0.1
	c-0.5-0.3-0.9-0.7-1.3-1.1c-0.2-3,0.1-6.1-0.1-9.2l1.4-0.1l1.6,1.3c0.5-0.8,1.3-0.2,2-0.1c0.5,0,1.1-0.3,1.6-0.1
	c0,0.4,0.1,0.9,0.1,1.3c0.4-0.7,0.7-1.5,0.9-2.2c-0.3-0.2-0.5-0.3-0.8-0.4l-0.3,1c-1.4,0-2.8-0.6-4.2-0.3l-0.5-0.8l-1.9-0.2
	c0.8-1.7,0.2-3.6,0.4-5.4c-0.4-10.6,0.2-21.2-0.6-31.9c-0.2-1.8-1.5-3.2-3.3-3.5c-1.6-0.3-3.2-0.5-4.9-0.5
	C564,109.2,563.6,108.5,563.2,107.9 M586.8,113.3c-1.8,0.5-3.1,2.2-3,4.1c-0.2,8.3,0.1,16.5,0,24.8c1.8,0.1,3.6-0.1,5.4-0.1
	c4.2,0.6,8.5-0.2,12.2-2.1c3.6-1.7,6-5.3,6.2-9.3c0-4.6,0.3-9.4-1.9-13.6c-1.6-2.9-4.9-4.2-8.1-4.5
	C594,112.6,590.3,112.3,586.8,113.3 M656.4,108.5c5.5-0.3,11,0.1,16.5,0v1.6c-3.2,0.5-6.7,0.8-9.5,2.4c-2.2,1.6-2.6,4.5-3,7
	c-0.2,4.6-0.2,9.2-0.3,13.8c-0.1,1.5,0.4,3.2-0.6,4.5c-0.8,1.3-2,2.4-3.5,3.1c0,0.3,0.1,0.9,0.2,1.2c0.2-0.2,0.5-0.6,0.6-0.8
	c0.6,0.4,1.3,0.6,2.1,0.6l1.3,1.5c-0.4,4.2,0.1,8.4,0,12.6c0,3.7,0,7.4,0.2,11.1l-1.1,0.1c0,0.3,0,0.8,0,1.1c0.3-0.3,0.7-0.6,1.1-1
	c0.3,2.2,0.5,4.7,2.3,6.2c2.6,2,6,2.1,9.2,2.7c0.9-0.1,0.7,1,0.9,1.6c-6.1,0.2-12.2,0-18.3,0.1c-0.4-0.5-0.8-1-1.2-1.4
	c-0.5,1.6-3.5,2.4-3.3,0c-0.1,0.4-0.2,1.1-0.3,1.4c-2.7-0.1-5.5,0-8.2,0.3c0-0.8,0-1.7,0-2.5c1.4-0.7,3-0.9,4.4-1.6
	c0.7-0.8,1.4-1.7,2-2.6l1.8,0.6c0-1.1-0.5-2.1-1.4-2.7c0.3-2.3,0.5-4.5,0.7-6.8c0.5-0.3,1.1-0.5,1.6-0.8c-0.7-0.5-1.9-0.8-1.8-1.8
	c0.4-4.6,0.2-9.1,0.3-13.7c0.6-0.1,1.3-0.2,1.9-0.4c-0.1-0.6-0.8-0.9-1.2-1.3c0.1-0.8,0.3-1.5,0.4-2.3c1.4-0.9,2.6,0,3.7,0.9
	c0.1-0.2,0.2-0.7,0.3-1c1.1,0.5,1.3-0.3,1.5-1.2c-2.1,1.2-4.9,0.1-6.7,1.9c0.1-2.1,0-4.1,0.1-6.2c0.5-0.6,0.8-1.4,0.9-2.2l1.2-0.2
	c0.2-0.8,0.4-1.6,0.6-2.4c-2.2-0.7-2.1-3.6-3.3-5.3c0.8,0.8,1.9,1.1,3,0.9c-0.1-1-0.1-1.9-0.2-2.9l0.8-1l-1.1-0.2
	c-0.2-1-0.5-2-0.8-2.9c-0.5-0.8-1-1.7-1.4-2.6c-0.2,0.7-0.9,1.2-1.6,1.2c0.3-0.7,0.7-1.4,1.1-2c-0.2-1.5-0.7-2.9-1.4-4.2
	c0-0.9,0.9-1.4,1.4-2.1c-0.6-0.7-0.9-1.6-0.9-2.5c3-0.1,6,0.2,9,0.1 M650.2,176.5c1.1-0.2,2.7-0.6,2.1-2.1
	C651.6,175,650.9,175.7,650.2,176.5 M679.7,108.3c10.2,0.3,20.5,0,30.8,0.1c-0.1,0.4-0.2,1.2-0.2,1.6c-2.3,0.5-5,0.9-6.4,3.1
	c4.1,5,8.7,9.7,13,14.5c1.1,1.3,2.6,2.4,3.3,4.1c-1,1-1.4,2.9-3.1,2.5c-1,1-2.3,1.6-3.7,1.9c-0.2,0.4-0.5,0.8-0.7,1.2
	c1.1-0.5,2.2-1.2,3.1-2c2.2-0.6,4.1,0.6,6.2,0.9c1.3,0.2,2.9,0.2,3.8,1.4c3.2,3.4,6.4,6.8,9.5,10.2c1.3,1.2,2.6,2.6,3.7,4
	c0,0.7-0.1,1.4-0.2,2.1c0.5-0.1,1.2-0.8,1.8-0.4c2.2,2.1,4,4.7,6.6,6.5c0.2-3.1,0.2-6.2-0.1-9.3c-0.1-0.9,0.1-1.7,0.3-2.6
	c-0.8-6.8-0.4-13.8-0.8-20.6c-0.1-1.7-0.1-3.4,0-5.1l1.9,0.4v-0.3c-0.6-0.1-1.2-0.2-1.8-0.3c-1.1-2.6-0.5-5.7-2.1-8.2
	c-0.8-1.3-2.4-1.7-3.8-2.2c-2-0.6-4.1-1.1-6.2-1.5c-0.7-0.1-0.5-1.2-0.8-1.6c2.6-0.4,5.3,0,8,0h11.9c2.6-0.2,5.2-0.2,7.7,0
	c0.5,0.7-0.4,1.5-0.8,2c-1.7,0.9-3.8,0.9-5.4,2c-1.2,1.2-2,2.7-2.1,4.4c-0.6,3.4-0.2,6.9-0.5,10.3c-0.3,3.2,0.3,6.5-0.1,9.7
	c-0.8-0.2-1.6-0.7-2.3-1.2c-0.1,0.4-0.2,1.2-0.3,1.7c0.6-0.2,1.2,0.1,1.4,0.7c0,0,0,0.1,0,0.1l-1.6-0.5c0,0.5,0,1.5,0,2l1.1-0.4
	c0.2,0.9,0.5,1.7,0.9,2.4c0.4-0.9,1.3-0.9,2.2-1c-0.7-0.8-1-1.8-0.9-2.8c0.6,0.9,1.9,1.6,1.4,2.9c-0.2,0.8-0.4,1.7-0.7,2.5
	c-0.5-0.6-1.1-1.1-1.9-1.5c0.2,1.3,0.7,2.5,1.5,3.6c-0.9,0.1-1.5,0.9-2.2,1.5c0.7,0.3,1.4,0.6,2,1.1c-0.6,0.6-1.3,1.2-1.3,2.1
	c0,1.7-0.3,3.3-0.3,5s0.8,3.3,0.9,5s0,3.2,0,4.8l-1.2-0.1l0.3,1.4l-1,0.9l1.9,1.4c0,3.6,0.1,7.2,0.3,10.8c-1,0-2.3,1.2-3.1,0.1
	c-4.5-5.1-9.3-9.9-13.8-15c0.8-0.6-0.2-2.5-0.8-1c-7.2-7.6-14.2-15.4-21.3-23.1c-0.5-0.6-1-1.2-1.4-1.8c-4.7-4.5-8.9-9.5-13.4-14.2
	c0.2,5.2-0.1,10.5,0.2,15.7c-1-0.3-2.5,0.1-3.1-1l0.2,0.8c-0.9,0.1-1.8,0.3-2.7,0.5c0-5.1,0.2-10.1,0.1-15.2
	c-0.1-2.3,0.7-4.7-0.3-6.9c-3.5-4.3-8.6-7.9-14.4-7.9C679,109.5,679,108.5,679.7,108.3 M256.4,108.7c1-0.1,2-0.1,3-0.1l-0.9,1.6
	l-2.2-0.2L256.4,108.7 M258.4,110.3c0.9-1.7,2.9-1.8,4.6-1.9c9.1,0,18.2,0,27.2,0c0,0.4,0,1.2,0,1.6c-3.2,0.5-6.7,0.6-9.5,2.5
	c-2.6,2.3-2.1,6.2-2.5,9.3c0.1,6.8-0.4,13.5-0.3,20.3c0,4.3-0.1,8.5,0,12.8c0.3,4.4,0.4,8.9,0.2,13.4c-0.1,1.3,1.3,2.1,2.3,2.8
	c4.9,2.8,10.7,2.7,16.2,2.4c3.7-0.4,7.6-1.1,10.6-3.6c2.6-2.8,4.7-6,6.2-9.6c0.3-0.9,1.3-0.2,1.9,0c-1.3,2.7-1.8,5.7-2.9,8.5
	c-0.9,2.8-1.9,5.5-2.6,8.3c-0.2,0.8-1.2,0.8-1.9,0.7c-3.4-0.2-6.9,0.5-10.3-0.2c-7,0.5-14.2,0.1-21.3,0.2
	c-7.1,0.3-14.1-0.4-21.2,0.2c-0.1-0.6-0.2-1.2-0.2-1.8c3.8-0.3,8.5-0.8,10.5-4.6c1.3-4.1,1-8.5,1.5-12.7c0.1-9.1,0-18.1,0-27.2
	c-0.2-5.4,0-10.9-0.7-16.2C265.7,112,261.5,110.6,258.4,110.3 M450.7,108.5c10.4,0.1,20.8,0,31.1,0.1c0,0.4,0,1.1,0,1.5
	c-2.4,0.5-5.1,1-6.5,3.3c5.6,5.8,10.7,12.2,16.4,18c7.6,8.3,15.4,16.6,23.1,24.8c1.4,1.3,2.5,2.9,4.1,4.1c0.4-4.9-0.5-9.8-0.3-14.7
	c0.9-0.4,0.4-1.1-0.1-1.5c-0.2-1,0-2,0.5-2.8c0-0.7-0.7-1.2-0.6-1.9c-0.3-6.4,0.1-12.9-0.7-19.3c-0.2-2.8-0.5-6.5-3.4-7.7
	c-2.8-1-5.7-1.7-8.6-2.3c0-0.4,0-1.1,0-1.5c7.2-0.1,14.5,0,21.7-0.1c2.8-0.2,5.7,0,8.5,0c0,0.4,0,1.2,0,1.6c-2.9,0.5-6,0.9-8.7,2.3
	c-1.4,0.7-1.8,2.3-2.4,3.6c-0.9,8.4-0.1,16.9-0.6,25.3c-0.1,10,0,20.1,0,30.1c0,2.6,0.3,5.2,0.2,7.9c-0.9,0.2-1.7,0.3-2.5,0.5
	c-7.9-8.2-15.5-16.8-23.3-25.1c-9.4-10.1-18.6-20.4-28.1-30.4c0,12.9,0.2,25.8,0.4,38.7c0.5,3.6-0.2,7.8,2.3,10.7
	c3.1,1.5,6.4,2.4,9.8,2.6c0,0.4,0.1,1.3,0.1,1.8c-10.2,0-20.5,0-30.7,0c0-0.4,0.1-1.3,0.1-1.8c2.8-0.3,5.5-0.9,8.1-1.9
	c1.7-0.5,2.3-2.3,2.8-3.8c1.4-5,0.8-10.2,1.4-15.3c0.2-1.6,0.2-3.1,0.2-4.7c-0.1-8.9,0.4-17.8,0.2-26.7c-0.1-1.9,0.2-3.8,0.1-5.6
	c-2.5-2.6-5.1-5.4-8.5-6.8c-1.9-0.7-4-1.1-6-1.4c0-0.4,0-1.3,0-1.7 M636.8,108.5c3.5,0.1,7-0.2,10.4,0.2c-0.1,1.2-0.3,2.3-0.5,3.5
	c-0.9,0.3-1.8-0.4-2.6-0.6c-2.3-0.9-4.8-0.9-7.2-1.4C636.8,109.8,636.8,108.9,636.8,108.5 M643.1,117.5c0.8-0.2,1,0,0.8,0.8
	C643,118.6,642.8,118.3,643.1,117.5 M646.2,118.2c0.8-0.2,1,0,0.8,0.9C646.2,119.3,645.9,119.1,646.2,118.2 M645.7,120.1l1.9-0.5
	c0.1,0.6,0.3,1.2,0.4,1.9l-2.1-0.3C645.9,120.9,645.8,120.3,645.7,120.1 M648.9,121.2c1.5,0.2,0.9,1.9,0.9,2.9
	C649.3,123.2,648.9,122.2,648.9,121.2 M648,128.7c0.7-0.2,0.9,0,0.7,0.7C648,129.6,647.8,129.4,648,128.7 M718.4,134.7
	c0.6-0.9,1-2.2,2.2-2.5c1.1,0.7,2,1.6,2.7,2.6c-0.7,0.3-1.4,0.6-2.2,0.8C720.2,135.4,719.3,135.1,718.4,134.7 M693.6,140.9
	c1.7-0.7,3.7-0.6,5.3,0.3c0.2,6.3,0,12.6,0.3,18.9c-0.2,4,0.2,8,1.2,11.8c0.4,1.6,1.9,2.3,3.3,2.7c2.6,0.9,5.3,1.4,8,1.7
	c-0.2,0.6,0,2-1,1.9c-10-0.2-20.1,0-30.1-0.1c0-0.4,0.2-1.3,0.2-1.7c3.4-0.9,7.7-0.5,10.2-3.5c2.4-4.4,1.8-9.5,2.1-14.3
	C693.4,152.7,693.7,146.8,693.6,140.9 M636.4,176.3c1.6-0.3,3.2-0.5,4.9-0.7c0,0.8,0,1.6,0,2.5C639.5,178,637.4,178.1,636.4,176.3
	 M787.5,181.3L787.5,181.3 M786.4,183.9c0-1.2,1-1.2,2-1.2c0,0.4,0.2,1.1,0.2,1.5L786.4,183.9L786.4,183.9z"/>

</svg>